<svg width="229" height="51" viewBox="0 0 229 51" fill="none" xmlns="http://www.w3.org/2000/svg">
<path d="M63.6706 24.9042C66.5708 24.9042 69.0432 26.3147 70.4061 28.7077L68.0447 30.3718C66.9565 28.6602 65.4984 27.8044 63.6706 27.8044C60.8179 27.8044 58.726 29.928 58.726 32.86C58.726 35.776 60.8179 37.868 63.6706 37.868C65.4984 37.868 66.9565 37.0069 68.0447 35.2848L70.4061 36.9647C69.0907 39.3419 66.5867 40.7682 63.6389 40.7682C59.1697 40.8633 55.4137 37.2182 55.4929 32.8283C55.4295 28.4542 59.2173 24.8091 63.6706 24.9042Z" fill="white"/>
<path d="M83.4333 40.483H80.3112V33.8109C80.3112 32.4797 79.4554 31.5763 78.1876 31.5763C76.9039 31.5763 76.0005 32.4797 76.0005 33.8109V40.483H72.8784V25.3955H76.0005V29.9756C76.7771 29.2149 77.8865 28.7553 79.1543 28.7553C81.7534 28.7553 83.4333 30.5779 83.4333 33.3672V40.483Z" fill="white"/>
<path d="M87.9974 22.8281C89.1067 22.8281 90.0101 23.7156 90.0101 24.825C90.0101 25.9185 89.1067 26.7585 87.9974 26.7585C86.888 26.7585 86.0005 25.9185 86.0005 24.825C86.0005 23.7156 86.888 22.8281 87.9974 22.8281ZM86.4442 29.0089H89.5663V40.4831H86.4442V29.0089Z" fill="white"/>
<path d="M110.376 40.4826H107.253V33.8105C107.253 32.4317 106.429 31.5759 105.209 31.5759C103.973 31.5759 103.101 32.4634 103.101 33.7312V40.4826H99.9633V33.8105C99.9633 32.4317 99.155 31.5759 97.9189 31.5759C96.651 31.5759 95.8111 32.4317 95.8111 33.8105V40.4826H92.689V29.0085H95.5575V30.0227C96.3182 29.2145 97.4751 28.7549 98.8064 28.7549C100.312 28.7549 101.453 29.3096 102.214 30.4031C103.117 29.3729 104.464 28.7549 106.033 28.7549C108.727 28.7549 110.376 30.5774 110.376 33.3667V40.4826Z" fill="white"/>
<path fill-rule="evenodd" clip-rule="evenodd" d="M119.932 40.7678C118.538 40.7678 117.333 40.2765 116.509 39.3732V44.6665H113.371V29.0085H116.24V30.4506C117.016 29.3571 118.363 28.7549 119.932 28.7549C123.134 28.7549 125.495 31.3064 125.495 34.7297C125.495 38.1687 123.134 40.7678 119.932 40.7678ZM119.362 31.5759C117.777 31.5759 116.461 32.6694 116.461 34.7297C116.461 36.7741 117.761 37.9151 119.362 37.9151C121.026 37.9151 122.325 36.6314 122.325 34.7613C122.325 32.8279 121.042 31.5759 119.362 31.5759Z" fill="white"/>
<path fill-rule="evenodd" clip-rule="evenodd" d="M137.587 40.4826H134.703V39.3732C133.879 40.229 132.674 40.7678 131.2 40.7678C128.776 40.7678 127.238 39.3415 127.238 37.3288C127.238 35.2685 128.918 33.9848 131.581 33.9848H134.449V33.4776C134.449 32.2098 133.704 31.4649 132.326 31.4649C131.137 31.4649 130.297 31.9562 129.283 33.0339L127.666 31.1163C128.987 29.542 130.656 28.7549 132.674 28.7549C135.654 28.7549 137.587 30.4823 137.587 33.6678V40.4826ZM134.449 36.0451H131.993C130.978 36.0451 130.392 36.4413 130.392 37.2178C130.392 37.9785 131.042 38.4698 132.04 38.4698C133.403 38.4698 134.449 37.5189 134.449 36.1877V36.0451Z" fill="white"/>
<path d="M151.153 40.4826H148.046V33.7788C148.046 32.4634 147.191 31.56 145.907 31.56C144.639 31.56 143.736 32.4634 143.736 33.7788V40.4826H140.598V29.0085H143.482V30.0544C144.29 29.2303 145.463 28.7549 146.842 28.7549C149.504 28.7549 151.153 30.5774 151.153 33.3667V40.4826Z" fill="white"/>
<path d="M163.102 37.8362V40.4829H153.007V39.6429L158.506 31.6554H153.546V29.0088H163.055V29.8329L157.603 37.8362H163.102Z" fill="white"/>
<path fill-rule="evenodd" clip-rule="evenodd" d="M167.524 35.8071C167.904 37.2651 169.077 38.0733 170.757 38.0733C171.882 38.0733 172.96 37.6771 173.958 36.9164L175.258 39.0401C173.879 40.1812 172.358 40.7675 170.662 40.7675C167.112 40.8309 164.307 38.0733 164.37 34.7611C164.307 31.4329 167.064 28.6754 170.377 28.7546C173.562 28.7546 175.781 31.0843 175.781 34.0796C175.781 34.6343 175.718 35.2207 175.575 35.8071H167.524ZM172.738 33.6041C172.722 32.1778 171.629 31.2744 170.266 31.2744C168.935 31.2744 167.873 32.1778 167.524 33.6041H172.738Z" fill="white"/>
<path fill-rule="evenodd" clip-rule="evenodd" d="M180.726 35.8071C181.091 37.2651 182.279 38.0733 183.943 38.0733C185.084 38.0733 186.146 37.6771 187.145 36.9164L188.444 39.0401C187.081 40.1812 185.544 40.7675 183.864 40.7675C180.314 40.8309 177.509 38.0733 177.572 34.7611C177.509 31.4329 180.267 28.6754 183.579 28.7546C186.764 28.7546 188.983 31.0843 188.983 34.0796C188.983 34.6343 188.92 35.2207 188.777 35.8071H180.726ZM185.94 33.6041C185.924 32.1778 184.831 31.2744 183.468 31.2744C182.137 31.2744 181.075 32.1778 180.726 33.6041H185.94Z" fill="white"/>
<path fill-rule="evenodd" clip-rule="evenodd" d="M200.647 38.4862H194.387L193.531 40.4831H190.171L197.002 24.9043H198.048L204.863 40.4831H201.503L200.647 38.4862ZM197.525 30.7365L195.481 35.9188H199.554L197.525 30.7365Z" fill="#00CE79"/>
<path d="M206.954 25.1738H210.092V40.4832H206.954V25.1738Z" fill="#00CE79"/>
<path fill-rule="evenodd" clip-rule="evenodd" d="M220.821 24.9042C225.227 24.8091 229.062 28.4542 228.999 32.8283C229.062 37.2182 225.227 40.8633 220.821 40.7682C216.415 40.8633 212.643 37.2182 212.707 32.8283C212.643 28.4542 216.415 24.8091 220.821 24.9042ZM220.853 27.8044C218.016 27.8044 215.94 29.8805 215.94 32.8283C215.94 35.776 218.016 37.868 220.853 37.868C223.658 37.868 225.766 35.776 225.766 32.8283C225.766 29.9281 223.658 27.8044 220.853 27.8044Z" fill="#00CE79"/>
<path fill-rule="evenodd" clip-rule="evenodd" d="M18.4873 36.2241L19.6233 35.5061L16.151 34.8523L17.5334 35.6025C17.905 45.5265 23.7529 48.2093 35.0772 43.651C33.9626 46.9661 30.844 48.6237 25.7212 48.6237C17.2834 48.6237 13.5717 43.8725 14.5863 34.3701C11.7713 32.7196 10.3638 30.0904 10.3638 26.4824C10.3638 22.5278 13.2788 19.3341 16.9976 19.3341C19.4839 19.3341 21.6559 20.4915 23.5135 22.8064C24.2852 20.2486 25.7891 18.9697 28.0254 18.9697C31.3691 18.9697 33.4911 22.1527 33.4911 24.5533C33.4911 26.1466 33.1553 27.5719 32.4837 28.8294C35.6345 30.6656 37.2099 33.3162 37.2099 36.7814C37.2099 40.3073 31.8407 41.5505 27.2966 41.5505C22.4954 41.5505 19.559 39.775 18.4873 36.2241ZM29.9009 33.5984L32.1836 31.723C30.3403 31.1157 29.5794 31.7408 29.9009 33.5984ZM27.9718 27.2004C28.2183 28.4221 29.0757 29.2795 29.8687 29.1187C30.6511 28.9473 31.0905 27.822 30.8333 26.611C30.5868 25.3892 29.7294 24.5319 28.9471 24.6926C28.154 24.8641 27.7146 25.9894 27.9718 27.2004ZM25.3569 33.8021H28.8828C28.4041 32.9947 27.7468 32.591 26.9108 32.591C26.082 32.591 25.5641 32.9947 25.3569 33.8021ZM22.6133 30.7799L23.0206 29.5689C18.9267 27.6684 15.8937 28.1971 13.9218 31.155L15.1328 32.0873C17.1834 30.3869 19.6768 29.9511 22.6133 30.7799Z" fill="#00CE79"/>
<path fill-rule="evenodd" clip-rule="evenodd" d="M42 26.9211C41.9857 29.5432 41.1998 31.4973 39.6422 32.7833C42 24.5312 38.6455 22.0556 37.1023 22.0556C36.0663 22.0556 35.4662 22.57 35.3018 23.5989C35.3018 25.2921 35.0303 26.7497 34.4873 27.9714C35.4233 28.6144 36.1699 29.3289 36.7272 30.1148C37.8846 29.7433 38.5134 28.4429 38.6134 26.2138C39.6708 28.4644 39.4958 30.3756 38.0883 31.9474C38.6027 33.4978 38.8599 35.0053 38.8599 36.47C38.8599 41.239 31.4116 42.1821 27.8857 42.3C22.5379 42.4929 20.0837 39.5993 20.0087 39.5136C20.0622 39.6315 21.8948 43.4896 26.8032 43.4896C31.4759 43.4896 35.2375 42.6501 38.0883 40.9711C36.6093 46.2653 32.3546 50.1556 25.185 50.1556C17.7831 50.1556 13.3355 46.9619 11.8423 40.5746C6.96963 40.5103 4.65833 38.5634 4.90839 34.7338C5.49425 36.8558 7.02679 37.9168 9.50599 37.9168C13.2355 37.9168 6.6767 30.7578 4.60831 30.7578C3.34371 30.7578 2.48635 31.4866 2.48635 33.8122C2.48635 37.2416 4.12962 40.1245 7.41617 42.4608C3.63307 41.1855 0 37.9918 0 31.6045C0 26.3103 2.2077 24.5991 6.62311 26.471C5.64786 19.9122 7.69481 17.6188 11.2957 14.5215C13.6892 12.4496 15.011 9.72033 15.261 6.33376C16.3827 7.3483 16.9222 8.53789 16.8793 9.90252C20.5159 7.93773 22.0127 4.63689 21.3697 0C25.3207 3.43659 26.4889 6.91247 24.8742 10.4276C26.5032 10.099 27.7463 9.09874 28.6037 7.42689C29.7683 10.1419 29.4146 12.5568 27.5427 14.6716C30.5435 16.0148 32.7262 17.7331 34.0908 19.8265C34.7267 18.7048 35.6769 18.1439 36.9415 18.1439C39.8887 18.1439 42.0107 22.913 42 26.9211ZM32.8798 28.2608C33.5514 27.0033 33.8872 25.5779 33.8872 23.9847C33.8872 21.5841 31.7652 18.4011 28.4215 18.4011C26.1852 18.4011 24.6848 19.68 23.9204 22.2378C22.0556 19.9229 19.8836 18.7655 17.4044 18.7655C13.6856 18.7655 10.7706 21.9591 10.7706 25.9137C10.7706 29.5218 12.1745 32.1546 14.9824 33.8122C13.975 43.3074 17.6866 48.0551 26.1174 48.0551C31.2472 48.0551 34.3694 46.3975 35.484 43.0824C24.1526 47.6407 18.3011 44.9578 17.9296 35.0339L16.5578 34.2837L20.0301 34.9374L18.8834 35.6662C19.9551 39.21 22.8951 40.9818 27.7035 40.9818C32.2475 40.9818 37.606 39.7387 37.606 36.2235C37.606 32.7512 36.0306 30.0969 32.8798 28.2608Z" fill="#315345"/>
<path d="M30.2649 28.5505C29.4718 28.7113 28.6252 27.8539 28.368 26.6429C28.1108 25.4212 28.5502 24.2959 29.3432 24.1351C30.1363 23.9636 30.9829 24.821 31.2401 26.0427C31.4973 27.2538 31.058 28.3791 30.2649 28.5505Z" fill="#315345"/>
<path d="M23.4166 29.0009L23.0201 30.2119C20.0836 29.3831 17.5902 29.8189 15.5396 31.5194L14.3286 30.587C16.2934 27.6291 19.3227 27.1004 23.4166 29.0009Z" fill="#315345"/>
<path d="M32.5797 31.1541L30.3077 33.0296C29.9862 31.172 30.7435 30.5468 32.5797 31.1541Z" fill="#315345"/>
<path d="M29.2788 33.2335H25.7637C25.9637 32.4261 26.4781 32.0225 27.3069 32.0225C28.1428 32.0225 28.8002 32.4261 29.2788 33.2335Z" fill="#315345"/>
</svg>
