<svg width="11" height="11" viewBox="0 0 11 11" fill="none" xmlns="http://www.w3.org/2000/svg">
    <path d="M4.64062 0H6.35938C6.64512 0 6.875 0.229883 6.875 0.515625V4.125H8.75918C9.1416 4.125 9.33281 4.58691 9.06211 4.85762L5.79434 8.12754C5.6332 8.28867 5.36895 8.28867 5.20781 8.12754L1.93574 4.85762C1.66504 4.58691 1.85625 4.125 2.23867 4.125H4.125V0.515625C4.125 0.229883 4.35488 0 4.64062 0ZM11 8.07812V10.4844C11 10.7701 10.7701 11 10.4844 11H0.515625C0.229883 11 0 10.7701 0 10.4844V8.07812C0 7.79238 0.229883 7.5625 0.515625 7.5625H3.66738L4.72012 8.61523C5.15195 9.04707 5.84805 9.04707 6.27988 8.61523L7.33262 7.5625H10.4844C10.7701 7.5625 11 7.79238 11 8.07812ZM8.33594 9.96875C8.33594 9.73242 8.14258 9.53906 7.90625 9.53906C7.66992 9.53906 7.47656 9.73242 7.47656 9.96875C7.47656 10.2051 7.66992 10.3984 7.90625 10.3984C8.14258 10.3984 8.33594 10.2051 8.33594 9.96875ZM9.71094 9.96875C9.71094 9.73242 9.51758 9.53906 9.28125 9.53906C9.04492 9.53906 8.85156 9.73242 8.85156 9.96875C8.85156 10.2051 9.04492 10.3984 9.28125 10.3984C9.51758 10.3984 9.71094 10.2051 9.71094 9.96875Z" />
</svg>