<svg width="36" height="36" viewBox="0 0 36 36" fill="none" xmlns="http://www.w3.org/2000/svg">
<rect width="36" height="36" fill="#1C1C1C"/>
<path d="M6.8625 6.8625C7.28444 6.44069 7.85664 6.20374 8.45325 6.20374C9.04987 6.20374 9.62207 6.44069 10.044 6.8625L18 14.8185L25.956 6.8625C26.3804 6.45265 26.9487 6.22586 27.5387 6.23099C28.1286 6.23611 28.6929 6.47274 29.1101 6.88991C29.5273 7.30708 29.7639 7.87141 29.769 8.46135C29.7741 9.0513 29.5474 9.61965 29.1375 10.044L21.1815 18L29.1375 25.956C29.5474 26.3804 29.7741 26.9487 29.769 27.5387C29.7639 28.1286 29.5273 28.6929 29.1101 29.1101C28.6929 29.5273 28.1286 29.7639 27.5387 29.769C26.9487 29.7741 26.3804 29.5474 25.956 29.1375L18 21.1815L10.044 29.1375C9.61965 29.5474 9.0513 29.7741 8.46135 29.769C7.87141 29.7639 7.30708 29.5273 6.88991 29.1101C6.47274 28.6929 6.23611 28.1286 6.23099 27.5387C6.22586 26.9487 6.45265 26.3804 6.8625 25.956L14.8185 18L6.8625 10.044C6.44069 9.62207 6.20374 9.04987 6.20374 8.45325C6.20374 7.85664 6.44069 7.28444 6.8625 6.8625V6.8625Z" />
</svg>
