<svg width="20" height="20" viewBox="0 0 20 20" fill="none" xmlns="http://www.w3.org/2000/svg">
<path d="M7.26953 12.8398C7.26953 13.6562 6.84375 14.9922 5.83594 14.9922C4.82812 14.9922 4.40234 13.6562 4.40234 12.8398C4.40234 12.0234 4.82812 10.6875 5.83594 10.6875C6.84375 10.6875 7.26953 12.0234 7.26953 12.8398ZM18.75 10.8672C18.75 12.1133 18.625 13.4336 18.0664 14.5781C16.5859 17.5703 12.5156 17.5 9.60156 17.5C6.64062 17.5 2.32813 17.6055 0.789063 14.5781C0.21875 13.4453 0 12.1133 0 10.8672C0 9.23047 0.542969 7.68359 1.62109 6.42969C1.41797 5.8125 1.32031 5.16406 1.32031 4.52344C1.32031 3.68359 1.51172 3.26172 1.89062 2.5C3.66016 2.5 4.79297 2.85156 6.14062 3.90625C7.27344 3.63672 8.4375 3.51562 9.60547 3.51562C10.6602 3.51562 11.7227 3.62891 12.7461 3.875C14.0742 2.83203 15.207 2.5 16.957 2.5C17.3398 3.26172 17.5273 3.68359 17.5273 4.52344C17.5273 5.16406 17.4258 5.80078 17.2266 6.40625C18.3008 7.67188 18.75 9.23047 18.75 10.8672ZM16.2383 12.8398C16.2383 11.125 15.1953 9.61328 13.3672 9.61328C12.6289 9.61328 11.9219 9.74609 11.1797 9.84766C10.5977 9.9375 10.0156 9.97266 9.41797 9.97266C8.82422 9.97266 8.24219 9.9375 7.65625 9.84766C6.92578 9.74609 6.21094 9.61328 5.46875 9.61328C3.64062 9.61328 2.59766 11.125 2.59766 12.8398C2.59766 16.2695 5.73828 16.7969 8.47266 16.7969H10.3555C13.1016 16.7969 16.2383 16.2734 16.2383 12.8398ZM13.0117 10.6875C12.0039 10.6875 11.5781 12.0234 11.5781 12.8398C11.5781 13.6562 12.0039 14.9922 13.0117 14.9922C14.0195 14.9922 14.4453 13.6562 14.4453 12.8398C14.4453 12.0234 14.0195 10.6875 13.0117 10.6875Z" fill="white" fill-opacity="0.85"/>
</svg>
