<svg width="17" height="17" viewBox="0 0 17 17" fill="none" xmlns="http://www.w3.org/2000/svg">
<path d="M8.5 0C3.80444 0 0 3.80444 0 8.5C0 13.1956 3.80444 17 8.5 17C13.1956 17 17 13.1956 17 8.5C17 3.80444 13.1956 0 8.5 0ZM12.6746 5.82319L11.2796 12.397C11.1768 12.8631 10.8992 12.9762 10.5119 12.7569L8.3869 11.1905L7.3621 12.1776C7.24899 12.2907 7.15302 12.3867 6.93367 12.3867L7.08448 10.224L11.0226 6.66633C11.194 6.51552 10.9849 6.42984 10.7587 6.58065L5.89173 9.64476L3.79415 8.99012C3.33831 8.84617 3.32802 8.53428 3.89012 8.31492L12.0851 5.15484C12.4655 5.01774 12.798 5.24738 12.6746 5.82319Z" fill-opacity="0.68"/>
</svg>
