<svg width="14" height="15" viewBox="0 0 14 15" fill="none" xmlns="http://www.w3.org/2000/svg">
<path d="M12.5 0H1.5C0.671875 0 0 0.719866 0 1.60714V13.3929C0 14.2801 0.671875 15 1.5 15H12.5C13.3281 15 14 14.2801 14 13.3929V1.60714C14 0.719866 13.3281 0 12.5 0ZM10.9719 5.31696C10.9781 5.41071 10.9781 5.50781 10.9781 5.60156C10.9781 8.50446 8.91562 11.8493 5.14687 11.8493C3.98438 11.8493 2.90625 11.4877 2 10.865C2.16563 10.885 2.325 10.8917 2.49375 10.8917C3.45312 10.8917 4.33437 10.5435 5.0375 9.95424C4.1375 9.93415 3.38125 9.30134 3.12188 8.4308C3.4375 8.48103 3.72187 8.48103 4.04688 8.39062C3.10938 8.18638 2.40625 7.30245 2.40625 6.23437V6.20759C2.67812 6.37165 2.99688 6.4721 3.33125 6.48549C3.05013 6.28514 2.81968 6.01335 2.66046 5.69436C2.50124 5.37537 2.4182 5.01911 2.41875 4.65737C2.41875 4.24888 2.51875 3.87388 2.69688 3.54911C3.70625 4.8817 5.22188 5.75223 6.92188 5.84598C6.63125 4.35603 7.67188 3.14732 8.92188 3.14732C9.5125 3.14732 10.0437 3.41183 10.4187 3.8404C10.8812 3.74665 11.325 3.5625 11.7188 3.31138C11.5656 3.82031 11.2438 4.24888 10.8188 4.52009C11.2313 4.47321 11.6313 4.34933 12 4.17857C11.7219 4.61719 11.3719 5.00558 10.9719 5.31696Z" fill-opacity="0.68"/>
</svg>
